<?xml version="1.0" encoding="UTF-8"?> <svg xmlns="http://www.w3.org/2000/svg" xmlns:xlink="http://www.w3.org/1999/xlink" baseProfile="tiny" id="Layer_1" x="0px" y="0px" width="598px" height="212px" viewBox="0 0 598 212" xml:space="preserve"> <g> <path fill="#EB1C2B" d="M91.6,200.2c-8.8,0-17.1-1.4-25.1-4.1l87.6-107l17.8,17.6V120C171.7,164.4,135.9,200.2,91.6,200.2 M11.4,123l26.7-32.9l51.4,62.1h0.1l-32.9,40.2C30.9,179.8,12.6,153.4,11.4,123 M96.1,144.4l-34.3-41.4l34-41.1l33.6,41.4 L96.1,144.4z M171.7,11.4v81.3l-18.4-18.4l-17.3,21.1L96,46.2L55.4,95.2L38.2,74.3l-26.7,32.9V11.4L171.7,11.4L171.7,11.4z M1.5,1.5v118.6c0,49.7,40.5,90.2,90.1,90.2s90.1-40.6,90.1-90.2V1.5L1.5,1.5L1.5,1.5z"></path> </g> <g> <path fill="#EB1C2B" d="M248.4,35.9H260l-5.7-16L248.4,35.9z M261.9,2.6l21.4,56.3h-14.9l-4-11h-20.5l-4,11h-14.7l21.4-56.3 C246.8,2.6,261.9,2.6,261.9,2.6z"></path> <polygon fill="#EB1C2B" points="287.5,2.6 302.3,2.6 302.3,46.2 327.5,46.2 327.5,59 287.5,59"></polygon> <rect x="492.4" y="2.6" fill="#EB1C2B" width="14.8" height="56.3"></rect> <path fill="#EB1C2B" d="M534.1,35.9h11.6l-5.8-16L534.1,35.9z M547.6,2.6L569,58.9h-14.9l-4-11h-20.5l-4,11h-14.7l21.4-56.3 C532.4,2.6,547.6,2.6,547.6,2.6z"></path> <polygon fill="#EB1C2B" points="228.9,82.8 233.3,82.8 233.3,131.1 261.8,131.1 261.8,135.1 228.9,135.1"></polygon> <path fill="#EB1C2B" d="M279.9,114h20.1l-9.9-25.8L279.9,114z M292.1,82.8l20.8,52.6h-4.4l-6.8-17.3h-23.3l-6.8,17.3h-4.5 l20.8-52.6H292.1z"></path> <polygon fill="#EB1C2B" points="359.1,135.1 356.3,135.1 324.2,89.5 324.2,135.1 319.8,135.1 319.8,82.8 324.2,82.8 355,126.5 355,82.8 359.1,82.8"></polygon> <path fill="#EB1C2B" d="M475.7,114h20.1l-10.1-25.8L475.7,114z M487.7,82.8l20.8,52.6h-4.4l-6.8-17.3H474l-6.8,17.3h-4.4l20.8-52.6 H487.7z"></path> <polygon fill="#EB1C2B" points="563.9,82.8 563.9,135.1 596.5,135.1 596.5,131.1 568.2,131.1 568.2,110 593.8,110 593.8,106 568.2,106 568.2,86.8 596.5,86.8 596.5,82.8"></polygon> <polygon fill="#EB1C2B" points="359.9,156.9 359.9,209.5 355.6,209.5 355.6,184.4 322.1,184.4 322.1,209.5 318,209.5 318,156.9 322.1,156.9 322.1,180.4 355.6,180.4 355.6,156.9"></polygon> <polygon fill="#EB1C2B" points="477.1,156.9 481.5,156.9 481.5,205.5 510,205.5 510,209.5 477.1,209.5"></polygon> <g> <path fill="#EB1C2B" d="M355.4,14.9h-8.6v14.2h8.6c5.3,0,7.7-2.8,7.7-7.1C363.1,17.7,360.8,14.9,355.4,14.9 M346.9,41.6v17.6 h-14.7V2.6h24.7c12.2,0,20.5,6.8,20.5,19.5c0,12.5-8.2,19.4-20.5,19.4L346.9,41.6L346.9,41.6L346.9,41.6L346.9,41.6z"></path> </g> <g> <path fill="#EB1C2B" d="M457,46.2c9.3,0,14.7-6.1,14.7-15.4c0-9.5-5.2-15.6-14.7-15.6h-6.1v30.9H457z M436.4,2.6h21.3 c17.8,0,28.5,11,28.5,28.2c0,17.1-10.8,28.2-28.5,28.2h-21.3V2.6z"></path> </g> <g> <path fill="#EB1C2B" d="M394.9,114.4v-3.9h17.9v3c0,13.4-8.2,22.4-21.1,22.4c-13.2,0-23.5-10.3-23.5-26.9 c0-16.6,10.4-26.9,23.5-26.9c10.3,0,17.4,6.1,19.6,15.1h-4.4c-2.3-6.8-7.5-11-15.4-11c-11,0-19.1,8.8-19.1,22.9 c0,14.1,8,23,19.1,23c10.4,0,16.4-6.5,16.8-17.4h-13.7v-0.2L394.9,114.4L394.9,114.4z"></path> <path fill="#EB1C2B" d="M421,114.5V82.8h4.4v31.3c0,12.4,6.7,18.2,15.7,18.2s15.9-5.7,15.9-18.2V82.8h4.4v31.7 c0,14.4-8.9,21.4-20.1,21.4C429.8,135.9,421,128.9,421,114.5"></path> </g> <g> <path fill="#EB1C2B" d="M536.9,114.4v-3.9h17.9v3c0,13.4-8.2,22.4-21.1,22.4c-13.2,0-23.5-10.3-23.5-26.9 c0-16.6,10.4-26.9,23.5-26.9c10.3,0,17.4,6.1,19.6,15.1h-4.5c-2.3-6.8-7.5-11-15.4-11c-11,0-19.1,8.8-19.1,22.9 c0,14.1,8,23,19.1,23c10.4,0,16.4-6.5,16.8-17.4h-13.4L536.9,114.4L536.9,114.4z"></path> </g> <g> <path fill="#EB1C2B" d="M228.9,196.6c2.1,6.3,7.6,9.7,14.9,9.7c7.5,0,13-3.9,13-10.4c0-4.6-2.3-8-9-9.7l-9.9-2.8 c-7.3-2.1-12.1-5.3-12.1-12.8c0-8.9,7.5-14.2,16.6-14.2c10.3,0,16.4,5.3,18.4,13.2h-4.4c-1.8-5.5-6.5-9.2-14.2-9.2 c-6.8,0-12.4,3.6-12.4,9.9c0,5.5,3.6,7.5,9.9,9.3l8.8,2.5c8.6,2.3,12.4,6.7,12.4,13.7c0,9.2-7.5,14.7-17.3,14.7 c-9.7,0-17.3-5-19.3-13.7h4.5v-0.2L228.9,196.6L228.9,196.6z"></path> <path fill="#EB1C2B" d="M290,156.3c10.2,0,17.3,6.1,19.3,15.1h-4.4c-2.2-6.7-7.5-11-15.1-11c-10.8,0-18.6,8.8-18.6,22.9 c0,13.9,7.7,22.9,18.6,22.9c7.6,0,12.8-4.4,15.1-11h4.4c-2.1,9-9.3,15.1-19.3,15.1c-12.8,0-23-10.4-23-26.9 C266.8,166.6,277,156.3,290,156.3"></path> </g> <g> <path fill="#EB1C2B" d="M392.4,160.2c-11.1,0-18.8,9.3-18.8,22.9c0,13.5,7.6,22.9,18.8,22.9c11.3,0,18.9-9.3,18.9-22.9 C411,169.7,403.4,160.2,392.4,160.2 M392.4,210.2c-13.3,0-23.1-11-23.1-26.9c0-15.9,9.8-26.9,23.1-26.9c13.4,0,23.3,11,23.3,26.9 C415.5,199.3,405.7,210.2,392.4,210.2"></path> <path fill="#EB1C2B" d="M444.8,160.2c-11.1,0-18.8,9.3-18.8,22.9c0,13.5,7.6,22.9,18.8,22.9c11.3,0,18.9-9.3,18.9-22.9 C463.6,169.7,456,160.2,444.8,160.2 M444.8,210.2c-13.3,0-23.1-11-23.1-26.9c0-15.9,9.8-26.9,23.1-26.9c13.4,0,23.3,11,23.3,26.9 C468.1,199.3,458.3,210.2,444.8,210.2"></path> </g> <g> <path fill="#EB1C2B" d="M518,196.6c2.1,6.3,7.7,9.7,14.9,9.7c7.5,0,13-3.9,13-10.4c0-4.6-2.3-8-9-9.7l-9.9-2.8 c-7.3-2.1-12.1-5.3-12.1-12.8c0-8.9,7.5-14.2,16.6-14.2c10.3,0,16.4,5.3,18.4,13.2h-4.4c-1.8-5.5-6.5-9.2-14.2-9.2 c-6.8,0-12.4,3.6-12.4,9.9c0,5.5,3.6,7.5,9.9,9.3l8.8,2.5c8.6,2.3,12.4,6.7,12.4,13.7c0,9.2-7.5,14.7-17.3,14.7 c-9.7,0-17.3-5-19.3-13.7h4.5v-0.2L518,196.6L518,196.6z"></path> </g> <path fill="#EB1C2B" d="M397.5,35.9h11.6l-5.7-16L397.5,35.9z M410.9,2.6l21.4,56.3h-14.9l-4-11h-20.5l-4,11h-14.7l21.4-56.3 C395.8,2.6,410.9,2.6,410.9,2.6z"></path> </g> </svg> 