<svg width="16" height="16" viewBox="0 0 16 16" fill="none" xmlns="http://www.w3.org/2000/svg">
<path d="M6.83329 13.5C8.31244 13.4997 9.74896 13.0045 10.9141 12.0933L14.5775 15.7566L15.7558 14.5783L12.0925 10.915C13.0041 9.74968 13.4996 8.31282 13.5 6.83329C13.5 3.15746 10.5091 0.166626 6.83329 0.166626C3.15746 0.166626 0.166626 3.15746 0.166626 6.83329C0.166626 10.5091 3.15746 13.5 6.83329 13.5ZM6.83329 1.83329C9.59079 1.83329 11.8333 4.07579 11.8333 6.83329C11.8333 9.59079 9.59079 11.8333 6.83329 11.8333C4.07579 11.8333 1.83329 9.59079 1.83329 6.83329C1.83329 4.07579 4.07579 1.83329 6.83329 1.83329Z" fill="black"/>
</svg>
